<?xml version="1.0" encoding="UTF-8" standalone="no"?>
<!DOCTYPE svg PUBLIC "-//W3C//DTD SVG 1.1//EN" "http://www.w3.org/Graphics/SVG/1.1/DTD/svg11.dtd">
<svg version="1.1" xmlns="http://www.w3.org/2000/svg" xmlns:xlink="http://www.w3.org/1999/xlink" preserveAspectRatio="xMidYMid meet" viewBox="0 0 400 400" width="400" height="400"><defs><path d="" id="a2F7E5s9Iv"></path><path d="M400 0L400 25L375 0L400 56.25L343.75 0L400 87.5L312.5 0L400 118.75L281.25 0L400 150L250 0L400 181.25L218.75 0L400 212.5L187.5 0L400 243.75L156.25 0L400 275L125 0L400 306.25L93.75 0L400 337.5L64.84 0L401.28 368.75L31.25 0L400 400L0 0L375 400L0 25L343.75 400L0 56.25L312.5 400L0 87.5L281.25 400L0 118.75L250 400L0 150L218.75 400L0 181.25L187.5 398.64L0 212.5L156.25 400L0 243.75L125 400L0 275L91.99 398.64L0 306.25L62.5 398.64L0 337.5L31.25 398.64L0 368.75" id="gf8WjJ5wn"></path></defs><g><g><g><g><use xlink:href="#a2F7E5s9Iv" opacity="1" fill-opacity="0" stroke="#000000" stroke-width="1" stroke-opacity="1"></use></g></g><g><g><filter id="shadow2516777" x="-9" y="-9" width="420.28" height="419" filterUnits="userSpaceOnUse" primitiveUnits="userSpaceOnUse"><feFlood></feFlood><feComposite in2="SourceAlpha" operator="in"></feComposite><feGaussianBlur stdDeviation="1"></feGaussianBlur><feOffset dx="1" dy="1" result="afterOffset"></feOffset><feFlood flood-color="#000000" flood-opacity="0.07"></feFlood><feComposite in2="afterOffset" operator="in"></feComposite><feMorphology operator="dilate" radius="1"></feMorphology><feComposite in2="SourceAlpha" operator="out"></feComposite></filter><path d="M400 0L400 25L375 0L400 56.25L343.75 0L400 87.5L312.5 0L400 118.75L281.25 0L400 150L250 0L400 181.25L218.75 0L400 212.5L187.5 0L400 243.75L156.25 0L400 275L125 0L400 306.25L93.75 0L400 337.5L64.84 0L401.28 368.75L31.25 0L400 400L0 0L375 400L0 25L343.75 400L0 56.25L312.5 400L0 87.5L281.25 400L0 118.75L250 400L0 150L218.75 400L0 181.25L187.5 398.64L0 212.5L156.25 400L0 243.75L125 400L0 275L91.99 398.64L0 306.25L62.5 398.64L0 337.5L31.25 398.64L0 368.75" id="n4S1AQyZIQ" fill="none" stroke="white" filter="url(#shadow2516777)"></path></g><g><use xlink:href="#gf8WjJ5wn" opacity="0.1" fill-opacity="0" stroke="#000000" stroke-width="1" stroke-opacity="1"></use></g></g></g></g></svg>