<?xml version="1.0" encoding="UTF-8" standalone="no"?>
<!DOCTYPE svg PUBLIC "-//W3C//DTD SVG 1.1//EN" "http://www.w3.org/Graphics/SVG/1.1/DTD/svg11.dtd">
<svg version="1.1" xmlns="http://www.w3.org/2000/svg" xmlns:xlink="http://www.w3.org/1999/xlink" preserveAspectRatio="xMidYMid meet" viewBox="0 0 400 400" width="400" height="400"><defs><path d="" id="a2F7E5s9Iv"></path><path d="M400 400L400 375L375 400L400 343.75L343.75 400L400 312.5L312.5 400L400 281.25L281.25 400L400 250L250 400L400 218.75L218.75 400L400 187.5L187.5 400L400 156.25L156.25 400L400 125L125 400L400 93.75L93.75 400L400 62.5L64.84 400L401.28 31.25L31.25 400L400 0L0 400L375 0L0 375L343.75 0L0 343.75L312.5 0L0 312.5L281.25 0L0 281.25L250 0L0 250L218.75 0L0 218.75L187.5 1.36L0 187.5L156.25 0L0 156.25L125 0L0 125L91.99 1.36L0 93.75L62.5 1.36L0 62.5L31.25 1.36L0 31.25" id="aapDOcseJ"></path></defs><g><g><g><g><use xlink:href="#a2F7E5s9Iv" opacity="1" fill-opacity="0" stroke="#000000" stroke-width="1" stroke-opacity="1"></use></g></g><g><g><filter id="shadow11695036" x="-9" y="-9" width="420.28" height="419" filterUnits="userSpaceOnUse" primitiveUnits="userSpaceOnUse"><feFlood></feFlood><feComposite in2="SourceAlpha" operator="in"></feComposite><feGaussianBlur stdDeviation="1"></feGaussianBlur><feOffset dx="1" dy="1" result="afterOffset"></feOffset><feFlood flood-color="#000000" flood-opacity="0.07"></feFlood><feComposite in2="afterOffset" operator="in"></feComposite><feMorphology operator="dilate" radius="1"></feMorphology><feComposite in2="SourceAlpha" operator="out"></feComposite></filter><path d="M400 400L400 375L375 400L400 343.75L343.75 400L400 312.5L312.5 400L400 281.25L281.25 400L400 250L250 400L400 218.75L218.75 400L400 187.5L187.5 400L400 156.25L156.25 400L400 125L125 400L400 93.75L93.75 400L400 62.5L64.84 400L401.28 31.25L31.25 400L400 0L0 400L375 0L0 375L343.75 0L0 343.75L312.5 0L0 312.5L281.25 0L0 281.25L250 0L0 250L218.75 0L0 218.75L187.5 1.36L0 187.5L156.25 0L0 156.25L125 0L0 125L91.99 1.36L0 93.75L62.5 1.36L0 62.5L31.25 1.36L0 31.25" id="f5G7gKCxBk" fill="none" stroke="white" filter="url(#shadow11695036)"></path></g><g><use xlink:href="#aapDOcseJ" opacity="0.1" fill-opacity="0" stroke="#000000" stroke-width="1" stroke-opacity="1"></use></g></g></g></g></svg>